<?xml version="1.0" encoding="UTF-8"?>
<svg version="1.1" xmlns="http://www.w3.org/2000/svg" width="500" height="500">
<path d="M0 0 C165 0 330 0 500 0 C500 165 500 330 500 500 C335 500 170 500 0 500 C0 335 0 170 0 0 Z " fill="#FEFEFE" transform="translate(0,0)"/>
<path d="M0 0 C1.0294574 0.00131424 1.0294574 0.00131424 2.07971191 0.00265503 C13.14320432 0.04918494 23.44613353 0.88438405 34 4.375 C34.81452637 4.64296387 35.62905273 4.91092773 36.46826172 5.18701172 C41.33955183 6.82607917 46.20958696 8.49455731 50.94067383 10.50756836 C52.96823639 11.40232936 52.96823639 11.40232936 55.01831055 11.99438477 C57.26302855 12.86388143 58.42367833 13.53646038 60 15.375 C61.46737215 19.94683378 61.94561409 24.54960471 62.4375 29.3125 C62.59669922 30.58802734 62.75589844 31.86355469 62.91992188 33.17773438 C63.53596027 38.2633847 64.09618876 43.24712368 64 48.375 C63.34 48.375 62.68 48.375 62 48.375 C61.5978125 47.26705078 61.5978125 47.26705078 61.1875 46.13671875 C54.81956919 29.65131893 44.6929475 20.11801564 28.875 12.9375 C12.72079237 6.00580455 -9.12998491 5.44393358 -25.53125 11.83984375 C-44.50995249 20.23920195 -58.08142925 34.08206606 -66 53.375 C-73.78711546 76.86311336 -73.12215444 100.53305612 -62.25 122.875 C-52.95337149 140.79965634 -37.94672836 152.83129951 -18.9375 159.25 C-13.07706036 160.84474401 -7.04334649 161.10030243 -1 161.375 C-0.54109375 160.61574219 -0.0821875 159.85648438 0.390625 159.07421875 C1.00421875 158.08035156 1.6178125 157.08648437 2.25 156.0625 C2.85328125 155.07636719 3.4565625 154.09023438 4.078125 153.07421875 C5.87840898 150.54577112 7.41840585 149.048467 10 147.375 C10 151.79501501 9.15107686 153.3606155 7 157.125 C6.443125 158.10984375 5.88625 159.0946875 5.3125 160.109375 C4.879375 160.85703125 4.44625 161.6046875 4 162.375 C23.10643992 161.07537414 42.1736353 157.6535574 57 144.375 C57 143.715 57 143.055 57 142.375 C55.66783716 141.09308258 55.66783716 141.09308258 53.87890625 139.828125 C53.19860352 139.31950928 52.51830078 138.81089355 51.81738281 138.28686523 C51.07327148 137.73844971 50.32916016 137.19003418 49.5625 136.625 C41.07059683 130.25968159 32.85802496 123.60295395 24.72192383 116.79077148 C23.23983907 115.57219648 21.71525229 114.40564805 20.18359375 113.25 C17.89116678 111.2815475 16.70261936 109.6022803 15.3125 106.9375 C14.91675781 106.19628906 14.52101563 105.45507812 14.11328125 104.69140625 C10.14188867 96.42812273 9.47411411 87.86692814 11.9453125 78.97265625 C13.14110679 75.99069123 14.46392572 73.19540305 16 70.375 C16.3609375 69.69824219 16.721875 69.02148438 17.09375 68.32421875 C21.45392281 61.30122612 29.54607382 56.02967951 37.4296875 53.8046875 C49.69803897 51.75374729 62.7741422 54.02593983 75 55.375 C75 63.955 75 72.535 75 81.375 C74.34 81.375 73.68 81.375 73 81.375 C72.814375 80.30572266 72.814375 80.30572266 72.625 79.21484375 C71.21426436 72.66374012 69.43691825 68.96521869 64.23046875 64.71484375 C57.01571148 60.38093527 48.17189073 60.18123661 40 61.375 C33.37735825 63.65231802 29.20686126 67.46795852 25.83984375 73.54296875 C23.02863433 79.6753279 23.02752308 86.50810953 24.66015625 93 C28.10922194 101.18333457 35.16959631 106.12084331 42 111.375 C43.10594178 112.24158415 44.21142087 113.10875916 45.31640625 113.9765625 C47.98326502 116.05882217 50.67634018 118.10389573 53.37841797 120.14013672 C55.05989399 121.42061033 56.72030108 122.72522696 58.37890625 124.03515625 C59.46083294 124.87773844 60.54286038 125.72019129 61.625 126.5625 C62.58664062 127.31917969 63.54828125 128.07585937 64.5390625 128.85546875 C65.35117187 129.35691406 66.16328125 129.85835937 67 130.375 C70.26286007 129.65414543 70.26286007 129.65414543 71.68359375 126.48828125 C72.28224234 125.22791517 72.86599788 123.96040539 73.4375 122.6875 C73.89600342 121.68614014 73.89600342 121.68614014 74.36376953 120.66455078 C79.13435788 109.92251057 81.92367371 98.78129702 82.5625 87.0625 C82.62727539 85.95165039 82.62727539 85.95165039 82.69335938 84.81835938 C82.79870432 83.00408536 82.89978316 81.1895645 83 79.375 C83.99 79.375 84.98 79.375 86 79.375 C86.72312692 97.0514358 84.41321603 113.25511618 77 129.375 C75.98887352 131.7037074 74.99470998 134.03920781 74 136.375 C75.08667969 137.39207031 75.08667969 137.39207031 76.1953125 138.4296875 C87.07954291 148.8170414 94.99713739 160.30613883 95.36572266 175.88647461 C95.42499551 190.18838917 91.50552244 201.50101782 81.5234375 212.046875 C75.0022874 218.06329212 67.62124938 222.26035393 59 224.375 C58.27683594 224.55804688 57.55367187 224.74109375 56.80859375 224.9296875 C39.85428977 227.61785253 24.52395213 224.57102051 10.19140625 215.19140625 C2.53728679 209.44584645 -2.6318568 199.30362051 -4.75 190.125 C-5.75228162 175.09077575 -5.75228162 175.09077575 -4 169.375 C-4.81339844 169.36082031 -5.62679687 169.34664062 -6.46484375 169.33203125 C-30.53353301 168.33029728 -53.0330149 157.47597346 -69.4375 139.875 C-76.06982483 131.91054155 -81.29437706 123.04795368 -85 113.375 C-85.39445313 112.34761719 -85.78890625 111.32023437 -86.1953125 110.26171875 C-92.79819691 89.8758903 -90.57251803 66.08524286 -81.25 46.9375 C-77.88793873 40.45117797 -73.95735383 34.76382722 -69 29.375 C-68.26265625 28.54613281 -67.5253125 27.71726563 -66.765625 26.86328125 C-49.22308828 8.14550922 -25.1685994 -0.07847653 0 0 Z " fill="#AE9755" transform="translate(254,151.625)"/>
<path d="M0 0 C1.0294574 0.00131424 1.0294574 0.00131424 2.07971191 0.00265503 C13.14320432 0.04918494 23.44613353 0.88438405 34 4.375 C34.81452637 4.64296387 35.62905273 4.91092773 36.46826172 5.18701172 C41.33955183 6.82607917 46.20958696 8.49455731 50.94067383 10.50756836 C52.96823639 11.40232936 52.96823639 11.40232936 55.01831055 11.99438477 C57.26302855 12.86388143 58.42367833 13.53646038 60 15.375 C61.46737215 19.94683378 61.94561409 24.54960471 62.4375 29.3125 C62.59669922 30.58802734 62.75589844 31.86355469 62.91992188 33.17773438 C63.53596027 38.2633847 64.09618876 43.24712368 64 48.375 C63.34 48.375 62.68 48.375 62 48.375 C61.5978125 47.26705078 61.5978125 47.26705078 61.1875 46.13671875 C54.81956919 29.65131893 44.6929475 20.11801564 28.875 12.9375 C12.72079237 6.00580455 -9.12998491 5.44393358 -25.53125 11.83984375 C-44.50995249 20.23920195 -58.08142925 34.08206606 -66 53.375 C-73.78711546 76.86311336 -73.12215444 100.53305612 -62.25 122.875 C-52.99740725 140.71475181 -37.97039113 152.97709234 -18.9375 159.1875 C-13.06199178 160.77653561 -7.02477255 161.57232654 -1 162.375 C-1.66 164.685 -2.32 166.995 -3 169.375 C-25.0276546 170.72363191 -47.06884643 159.74440355 -63.375 145.83203125 C-76.25213242 133.77888201 -83.619152 119.30437872 -88 102.375 C-88.1743457 101.77292725 -88.34869141 101.17085449 -88.52832031 100.55053711 C-93.03271086 79.77485171 -87.90710918 57.20877935 -77 39.375 C-74.56780515 35.78531483 -71.93364213 32.56397765 -69 29.375 C-68.26265625 28.54613281 -67.5253125 27.71726563 -66.765625 26.86328125 C-49.22308828 8.14550922 -25.1685994 -0.07847653 0 0 Z " fill="#050505" transform="translate(254,151.625)"/>
<path d="M0 0 C8.30226407 3.63337596 12.57515388 12.03227949 16 20 C18.84205621 28.52616863 18.03205597 39.96882939 14.125 48 C13.75375 48.66 13.3825 49.32 13 50 C12.4225 51.051875 11.845 52.10375 11.25 53.1875 C4.90489343 61.11888321 -3.72865998 67.56779907 -14 69 C-27.39548768 69.92237083 -38.3181805 69.41712687 -49.12109375 60.6875 C-56.47816489 54.0799018 -61.11172297 46.82267184 -63 37 C-63.09278598 34.81407156 -63.12997814 32.62539113 -63.125 30.4375 C-63.12757813 29.30183594 -63.13015625 28.16617187 -63.1328125 26.99609375 C-63 24 -63 24 -62 21 C-60.93265625 20.98582031 -59.8653125 20.97164063 -58.765625 20.95703125 C-36.71783025 20.37102671 -16.78556685 14.89042221 0 0 Z " fill="#FDFDFD" transform="translate(317,300)"/>
<path d="M0 0 C2.475 1.485 2.475 1.485 5 3 C4.66994167 5.91227942 4.10343398 6.90413436 1.91796875 8.9296875 C-15.86358113 21.59808784 -34.21649985 27.26976361 -56 26 C-55.67 23.69 -55.34 21.38 -55 19 C-54.4423999 18.96559814 -53.8847998 18.93119629 -53.31030273 18.89575195 C-33.90463458 17.61001431 -14.72249958 13.88121389 0 0 Z " fill="#0A0A0A" transform="translate(312,295)"/>
<path d="M0 0 C0.99 0 1.98 0 3 0 C3.83399838 20.38662701 0.23487506 37.80509734 -9 56 C-10.65 55.34 -12.3 54.68 -14 54 C-13.26511336 50.06100761 -11.44444162 46.68369851 -9.6875 43.125 C-4.26149384 31.84790886 -1.11873925 20.18433145 -0.4375 7.6875 C-0.39431641 6.94693359 -0.35113281 6.20636719 -0.30664062 5.44335938 C-0.20129568 3.62908536 -0.10021684 1.8145645 0 0 Z " fill="#0D0D0D" transform="translate(337,231)"/>
<path d="M0 0 C0.99 0 1.98 0 3 0 C3 4.95 3 9.9 3 15 C2.67 15 2.34 15 2 15 C1.67 13.35 1.34 11.7 1 10 C0.67 10 0.34 10 0 10 C0 6.7 0 3.4 0 0 Z " fill="#252525" transform="translate(337,231)"/>
</svg>
